<svg xmlns="http://www.w3.org/2000/svg" viewBox="0 0 1280 1067"><g fill="none" stroke="#92e9b2" stroke-width="2"><path d="M541 716.09c146 78.86 320.69-37.28 306.08-201.32-8.74-98.09-85.37-176.6-183.08-188.02-75.26-8.8-150.27 24.79-193.66 86.58-46.91 66.79-50.55 152.54-10.67 223.51a1 .98 38.8 0 1 .09.75l-28.91 105.56q-.46 1.67 1.21 1.24l108.21-28.38a1.03 1.02 51.2 0 1 .73.08" vector-effect="non-scaling-stroke"/><path d="M546.04 678.53c50.08 31.55 112.39 36.72 166.37 11.62 81.66-37.96 120.83-132.23 89.72-216.79-19.07-51.82-63.07-92.27-116.2-106.76-58.67-15.99-120.93-.32-165.36 41.98-56.92 54.18-68.79 138.31-32.32 207.41q1.89 3.57 9.25 15.36a.97.96 36.7 0 1 .12.79l-16.82 61.6a1 1 0 0 0 1.22 1.23l63.23-16.56a1.01 1.01 0 0 1 .79.12" vector-effect="non-scaling-stroke"/><path d="M551.74 535.02c23.04 34.41 52.65 65.7 89.82 82.77 23.15 10.63 51.71 22.1 76.88 10.33 18.64-8.73 27.24-20.9 26.94-42.03-.05-3.09-1.2-4.62-3.81-5.91q-24.46-12.16-38.34-18.64c-6.12-2.86-10.86-5.37-15.8 1.17q-7.76 10.28-16.14 20.06-3.67 4.27-9.2 2.1-48.03-18.84-73.09-63.37c-1.96-3.49-1.04-5.77 1.61-8.68 7.48-8.21 12.37-13.88 15.3-22.68a1.02.99 44.2 0 0-.02-.7q-9.35-22.64-18.87-45.44c-1.45-3.47-4.42-6.19-8.47-6.5-8.64-.66-17.85-1.22-23.57 4-29.81 27.26-23.59 63.12-3.24 93.52" vector-effect="non-scaling-stroke"/></g><path fill="#25d366" d="M20.31 0h1239.75q17.48 2.55 19.94 20.06v1027.25q-2.6 16.78-19.31 19.69H19.44Q2.38 1064.12 0 1046.94V19.69Q2.77 2.26 20.31 0ZM541 716.09c146 78.86 320.69-37.28 306.08-201.32-8.74-98.09-85.37-176.6-183.08-188.02-75.26-8.8-150.27 24.79-193.66 86.58-46.91 66.79-50.55 152.54-10.67 223.51a1 .98 38.8 0 1 .09.75l-28.91 105.56q-.46 1.67 1.21 1.24l108.21-28.38a1.03 1.02 51.2 0 1 .73.08Z"/><path fill="#fefefe" d="M541 716.09a1.03 1.02 51.2 0 0-.73-.08l-108.21 28.38q-1.67.43-1.21-1.24l28.91-105.56a1 .98 38.8 0 0-.09-.75c-39.88-70.97-36.24-156.72 10.67-223.51 43.39-61.79 118.4-95.38 193.66-86.58 97.71 11.42 174.34 89.93 183.08 188.02C861.69 678.81 687 794.95 541 716.09Zm5.04-37.56c50.08 31.55 112.39 36.72 166.37 11.62 81.66-37.96 120.83-132.23 89.72-216.79-19.07-51.82-63.07-92.27-116.2-106.76-58.67-15.99-120.93-.32-165.36 41.98-56.92 54.18-68.79 138.31-32.32 207.41q1.89 3.57 9.25 15.36a.97.96 36.7 0 1 .12.79l-16.82 61.6a1 1 0 0 0 1.22 1.23l63.23-16.56a1.01 1.01 0 0 1 .79.12Z"/><path fill="#25d366" d="m545.25 678.41-63.23 16.56a1 1 0 0 1-1.22-1.23l16.82-61.6a.97.96 36.7 0 0-.12-.79q-7.36-11.79-9.25-15.36c-36.47-69.1-24.6-153.23 32.32-207.41 44.43-42.3 106.69-57.97 165.36-41.98 53.13 14.49 97.13 54.94 116.2 106.76 31.11 84.56-8.06 178.83-89.72 216.79-53.98 25.1-116.29 19.93-166.37-11.62a1.01 1.01 0 0 0-.79-.12Zm6.49-143.39c23.04 34.41 52.65 65.7 89.82 82.77 23.15 10.63 51.71 22.1 76.88 10.33 18.64-8.73 27.24-20.9 26.94-42.03-.05-3.09-1.2-4.62-3.81-5.91q-24.46-12.16-38.34-18.64c-6.12-2.86-10.86-5.37-15.8 1.17q-7.76 10.28-16.14 20.06-3.67 4.27-9.2 2.1-48.03-18.84-73.09-63.37c-1.96-3.49-1.04-5.77 1.61-8.68 7.48-8.21 12.37-13.88 15.3-22.68a1.02.99 44.2 0 0-.02-.7q-9.35-22.64-18.87-45.44c-1.45-3.47-4.42-6.19-8.47-6.5-8.64-.66-17.85-1.22-23.57 4-29.81 27.26-23.59 63.12-3.24 93.52Z"/><path fill="#fefefe" d="M641.56 617.79c-37.17-17.07-66.78-48.36-89.82-82.77-20.35-30.4-26.57-66.26 3.24-93.52 5.72-5.22 14.93-4.66 23.57-4 4.05.31 7.02 3.03 8.47 6.5q9.52 22.8 18.87 45.44a1.02.99 44.2 0 1 .02.7c-2.93 8.8-7.82 14.47-15.3 22.68-2.65 2.91-3.57 5.19-1.61 8.68q25.06 44.53 73.09 63.37 5.53 2.17 9.2-2.1 8.38-9.78 16.14-20.06c4.94-6.54 9.68-4.03 15.8-1.17q13.88 6.48 38.34 18.64c2.61 1.29 3.76 2.82 3.81 5.91.3 21.13-8.3 33.3-26.94 42.03-25.17 11.77-53.73.3-76.88-10.33Z"/></svg>